<svg width="120" height="120" viewBox="0 0 120 120" fill="none" xmlns="http://www.w3.org/2000/svg">
<path d="M72.1462 79.935C63.4387 77.1862 65.9175 74.9981 74.2275 71.8762C78.2081 70.3781 75.7875 67.2187 75.8962 64.6912C75.945 63.5344 80.4937 63.765 80.1637 59.3025C79.9312 56.16 73.0087 51.6825 71.1225 49.7719C70.0331 48.6694 73.3425 45.6525 71.0119 42.9994C67.83 39.3731 67.3275 33.0637 65.4019 29.535C65.4019 29.535 66.87 27.2925 65.745 26.0175C56.04 15.0319 19.8244 16.0406 10.5694 32.2087C0.179988 50.3587 0.0412388 75.4444 21.6431 88.9594C31.2506 94.9687 18.945 116.25 18.945 116.25H57.0431C57.0431 112.616 52.7944 99.5812 60.2306 100.166C66.6919 100.674 74.6044 100.395 73.9031 93.0975C73.6912 90.8962 73.4419 88.9144 74.9794 87.09C76.5169 85.2675 78.7425 82.0162 72.1462 79.935ZM80.8669 76.5094L116.25 81.1444V71.8762L80.8669 76.5094ZM109.612 107.027L113.407 99L80.8669 81.435L109.612 107.027ZM113.407 53.9362L109.612 45.9075L80.8669 71.5031L113.407 53.9362Z" fill="#2234FD"/>
</svg>
