<svg width="120" height="120" viewBox="0 0 120 120" fill="none" xmlns="http://www.w3.org/2000/svg">
<path d="M105 15H15C13.6739 15 12.4021 15.5268 11.4645 16.4645C10.5268 17.4021 10 18.6739 10 20V100C10 101.326 10.5268 102.598 11.4645 103.536C12.4021 104.473 13.6739 105 15 105H105C106.326 105 107.598 104.473 108.536 103.536C109.473 102.598 110 101.326 110 100V20C110 18.6739 109.473 17.4021 108.536 16.4645C107.598 15.5268 106.326 15 105 15ZM60 80C56.0218 80 52.2064 78.4197 49.3934 75.6066C46.5803 72.7936 45 68.9782 45 65H20V25H100V65H75C75 68.9782 73.4197 72.7936 70.6066 75.6066C67.7936 78.4197 63.9782 80 60 80ZM80 55H65V70H55V55H40L60 32.5L80 55Z" fill="#2234FD"/>
</svg>
