<svg width="103" height="103" viewBox="0 0 103 103" fill="none" xmlns="http://www.w3.org/2000/svg">
<path d="M97.189 41.8621H29.9857C28.3858 41.8621 27.0889 43.159 27.0889 44.7589V60.8823H6.85378C5.25386 60.8823 3.95691 62.1792 3.95691 63.7791V97.0855C3.95691 98.6855 5.25386 99.9824 6.85378 99.9824H97.1892C98.7891 99.9824 100.086 98.6855 100.086 97.0855V44.7589C100.086 43.159 98.7887 41.8621 97.189 41.8621Z" fill="#AFC1C9"/>
<path d="M100.332 38.0206H43.1918C42.8077 38.0206 42.4393 38.1732 42.1676 38.4449C41.896 38.7165 41.7434 39.0849 41.7434 39.4691V42.887C41.7434 43.3408 41.9237 43.7759 42.2445 44.0968C42.5654 44.4177 43.0006 44.5979 43.4544 44.5979H100.07C100.523 44.5979 100.959 44.4177 101.279 44.0968C101.6 43.7759 101.781 43.3408 101.781 42.887V39.4691C101.78 39.0849 101.628 38.7165 101.356 38.4449C101.084 38.1732 100.716 38.0206 100.332 38.0206ZM3.71064 56.3144H60.8509C61.2351 56.3144 61.6035 56.467 61.8751 56.7386C62.1467 57.0103 62.2993 57.3787 62.2993 57.7628V61.1807C62.2993 61.6345 62.1191 62.0697 61.7982 62.3906C61.4773 62.7115 61.0421 62.8917 60.5884 62.8917H3.97317C3.5194 62.8917 3.08421 62.7115 2.76334 62.3906C2.44247 62.0697 2.26221 61.6345 2.26221 61.1807V57.7628C2.26221 57.3787 2.41481 57.0103 2.68644 56.7386C2.95808 56.467 3.32649 56.3144 3.71064 56.3144Z" fill="#95AAAD"/>
<path d="M63.6536 6.03577H11.8086C10.9714 6.03577 10.2926 6.83925 10.2926 7.83022V98.188C10.2926 99.1789 10.9714 99.9824 11.8086 99.9824H63.6536C64.4909 99.9824 65.1697 99.1789 65.1697 98.188V7.83022C65.1697 6.83925 64.4909 6.03577 63.6536 6.03577Z" fill="#CFDBE2"/>
<path d="M47.2587 22.8406H40.5918V16.1738C40.5918 15.7896 40.4392 15.4212 40.1676 15.1496C39.896 14.8779 39.5276 14.7253 39.1434 14.7253H36.319C35.9348 14.7253 35.5664 14.8779 35.2948 15.1496C35.0231 15.4212 34.8705 15.7896 34.8705 16.1738V22.8406H28.2037C27.8195 22.8406 27.4511 22.9932 27.1795 23.2649C26.9079 23.5365 26.7552 23.9049 26.7552 24.2891V27.1135C26.7552 27.4977 26.9079 27.8661 27.1795 28.1377C27.4511 28.4093 27.8195 28.5619 28.2037 28.5619H34.8705V35.2288C34.8705 35.6129 35.0231 35.9813 35.2948 36.253C35.5664 36.5246 35.9348 36.6772 36.319 36.6772H39.1434C39.5276 36.6772 39.896 36.5246 40.1676 36.253C40.4392 35.9813 40.5918 35.6129 40.5918 35.2288V28.5619H47.2587C47.6428 28.5619 48.0112 28.4093 48.2829 28.1377C48.5545 27.8661 48.7071 27.4977 48.7071 27.1135V24.2891C48.7071 23.9049 48.5545 23.5365 48.2829 23.2649C48.0112 22.9932 47.6428 22.8406 47.2587 22.8406Z" fill="#FF473E"/>
<path d="M93.3222 74.1051H72.0427C71.6585 74.1051 71.2901 73.9525 71.0185 73.6809C70.7468 73.4093 70.5942 73.0408 70.5942 72.6567V64.1212C70.5942 63.737 70.7468 63.3686 71.0185 63.097C71.2901 62.8253 71.6585 62.6727 72.0427 62.6727H93.3224C93.7066 62.6727 94.075 62.8253 94.3466 63.097C94.6183 63.3686 94.7709 63.737 94.7709 64.1212V72.6567C94.7708 73.0409 94.6182 73.4093 94.3465 73.6809C94.0748 73.9525 93.7064 74.1051 93.3222 74.1051ZM95.0199 90.5948V82.0593C95.0199 81.6751 94.8673 81.3067 94.5957 81.0351C94.324 80.7634 93.9556 80.6108 93.5715 80.6108H71.7934C71.4093 80.6108 71.0408 80.7634 70.7692 81.0351C70.4976 81.3067 70.345 81.6751 70.345 82.0593V90.5948C70.345 90.9789 70.4976 91.3474 70.7692 91.619C71.0408 91.8906 71.4093 92.0432 71.7934 92.0432H93.5715C93.9556 92.0432 94.324 91.8906 94.5957 91.619C94.8673 91.3474 95.0199 90.9789 95.0199 90.5948ZM95.0199 54.1485V51.3291C95.0199 50.9449 94.8673 50.5765 94.5957 50.3049C94.324 50.0332 93.9556 49.8806 93.5715 49.8806H71.7934C71.4093 49.8806 71.0408 50.0332 70.7692 50.3049C70.4976 50.5765 70.345 50.9449 70.345 51.3291V54.1485C70.345 54.5326 70.4976 54.901 70.7692 55.1727C71.0408 55.4443 71.4093 55.5969 71.7934 55.5969H93.5715C93.9556 55.5969 94.324 55.4443 94.5957 55.1727C94.8673 54.901 95.0199 54.5326 95.0199 54.1485Z" fill="#0096D1"/>
<path d="M20.2867 84.7147H55.1754V99.9825H20.2867V84.7147Z" fill="#2B3B47"/>
<path d="M41.3687 74.1051H34.1849C33.8008 74.1051 33.4323 73.9525 33.1607 73.6808C32.8891 73.4092 32.7365 73.0408 32.7365 72.6566V63.6315C32.7365 63.2473 32.8891 62.8789 33.1607 62.6073C33.4323 62.3356 33.8008 62.183 34.1849 62.183H41.3687C41.7529 62.183 42.1213 62.3356 42.3929 62.6073C42.6646 62.8789 42.8172 63.2473 42.8172 63.6315V72.6566C42.8172 73.0408 42.6646 73.4092 42.3929 73.6808C42.1213 73.9525 41.7529 74.1051 41.3687 74.1051ZM58.5007 72.6566V63.6315C58.5007 63.2473 58.3481 62.8789 58.0765 62.6073C57.8049 62.3356 57.4365 62.183 57.0523 62.183H49.8685C49.4843 62.183 49.1159 62.3356 48.8443 62.6073C48.5726 62.8789 48.42 63.2473 48.42 63.6315V72.6566C48.42 73.0408 48.5726 73.4092 48.8443 73.6808C49.1159 73.9525 49.4843 74.1051 49.8685 74.1051H57.0523C57.4365 74.1051 57.8049 73.9525 58.0765 73.6808C58.3481 73.4092 58.5007 73.0408 58.5007 72.6566ZM27.1338 72.6566V63.6315C27.1338 63.2473 26.9812 62.8789 26.7096 62.6073C26.438 62.3356 26.0695 62.183 25.6854 62.183H18.5015C18.1174 62.183 17.749 62.3356 17.4773 62.6073C17.2057 62.8789 17.0531 63.2473 17.0531 63.6315V72.6566C17.0531 73.0408 17.2057 73.4092 17.4773 73.6808C17.749 73.9525 18.1174 74.1051 18.5015 74.1051H25.6854C26.0695 74.1051 26.438 73.9525 26.7096 73.6808C26.9812 73.4092 27.1338 73.0408 27.1338 72.6566ZM23.1559 54.1484V45.1232C23.1559 44.933 23.1184 44.7447 23.0456 44.5689C22.9728 44.3932 22.8661 44.2335 22.7316 44.099C22.5971 43.9645 22.4374 43.8579 22.2617 43.7851C22.086 43.7123 21.8976 43.6748 21.7074 43.6748H18.5015C18.3113 43.6748 18.123 43.7123 17.9472 43.7851C17.7715 43.8579 17.6118 43.9645 17.4773 44.099C17.3428 44.2335 17.2361 44.3932 17.1634 44.5689C17.0906 44.7447 17.0531 44.933 17.0531 45.1232V54.1484C17.0531 54.3386 17.0906 54.527 17.1634 54.7027C17.2361 54.8784 17.3428 55.0381 17.4773 55.1726C17.6118 55.3071 17.7715 55.4138 17.9472 55.4866C18.123 55.5594 18.3113 55.5969 18.5015 55.5969H21.7074C22.0916 55.5969 22.46 55.4442 22.7316 55.1726C23.0032 54.901 23.1559 54.5326 23.1559 54.1484ZM34.9375 54.1484V45.1232C34.9375 44.7391 34.7849 44.3707 34.5132 44.099C34.2416 43.8274 33.8732 43.6748 33.489 43.6748H30.2832C29.899 43.6748 29.5306 43.8274 29.259 44.099C28.9873 44.3707 28.8347 44.7391 28.8347 45.1232V54.1484C28.8347 54.5326 28.9873 54.901 29.259 55.1726C29.5306 55.4442 29.899 55.5969 30.2832 55.5969H33.489C33.8732 55.5969 34.2416 55.4442 34.5132 55.1726C34.7849 54.901 34.9375 54.5326 34.9375 54.1484ZM46.7191 54.1484V45.1232C46.7191 44.7391 46.5665 44.3707 46.2949 44.099C46.0232 43.8274 45.6548 43.6748 45.2707 43.6748H42.0648C41.6807 43.6748 41.3122 43.8274 41.0406 44.099C40.769 44.3707 40.6164 44.7391 40.6164 45.1232V54.1484C40.6164 54.5326 40.769 54.901 41.0406 55.1726C41.3122 55.4442 41.6807 55.5969 42.0648 55.5969H45.2707C45.6548 55.5969 46.0232 55.4442 46.2949 55.1726C46.5665 54.901 46.7191 54.5326 46.7191 54.1484ZM58.5007 54.1484V45.1232C58.5007 44.7391 58.3481 44.3707 58.0765 44.099C57.8049 43.8274 57.4365 43.6748 57.0523 43.6748H53.8464C53.4623 43.6748 53.0939 43.8274 52.8222 44.099C52.5506 44.3707 52.398 44.7391 52.398 45.1232V54.1484C52.398 54.5326 52.5506 54.901 52.8222 55.1726C53.0939 55.4442 53.4623 55.5969 53.8464 55.5969H57.0523C57.4365 55.5969 57.8049 55.4442 58.0765 55.1726C58.3481 54.901 58.5007 54.5326 58.5007 54.1484Z" fill="#00B1FF"/>
<path d="M55.1754 86.3269H20.2867V84.6733C20.2867 83.5785 21.1743 82.6909 22.2691 82.6909H53.1928C54.2876 82.6909 55.1752 83.5785 55.1752 84.6733L55.1754 86.3269Z" fill="#67747C"/>
<path d="M66.3471 4.03589H9.20686C8.82271 4.03589 8.45429 4.18849 8.18266 4.46013C7.91103 4.73176 7.75842 5.10018 7.75842 5.48433V8.90224C7.75842 9.35601 7.93868 9.7912 8.25955 10.1121C8.58042 10.4329 9.01561 10.6132 9.46939 10.6132H66.0846C66.5384 10.6132 66.9735 10.4329 67.2944 10.1121C67.6153 9.7912 67.7956 9.35601 67.7956 8.90224V5.48433C67.7956 5.10018 67.6429 4.73176 67.3713 4.46013C67.0997 4.18849 66.7313 4.03589 66.3471 4.03589Z" fill="#95AAAD"/>
</svg>
