<svg width="105" height="120" viewBox="0 0 105 120" fill="none" xmlns="http://www.w3.org/2000/svg">
<g clip-path="url(#clip0_12_6)">
<path d="M30 57.1875V47.8125C30 46.2593 31.2593 45 32.8125 45H42.1875C43.7407 45 45 46.2593 45 47.8125V57.1875C45 58.7407 43.7407 60 42.1875 60H32.8125C31.2593 60 30 58.7407 30 57.1875ZM62.8125 60H72.1875C73.7407 60 75 58.7407 75 57.1875V47.8125C75 46.2593 73.7407 45 72.1875 45H62.8125C61.2593 45 60 46.2593 60 47.8125V57.1875C60 58.7407 61.2593 60 62.8125 60ZM45 79.6875V70.3125C45 68.7593 43.7407 67.5 42.1875 67.5H32.8125C31.2593 67.5 30 68.7593 30 70.3125V79.6875C30 81.2407 31.2593 82.5 32.8125 82.5H42.1875C43.7407 82.5 45 81.2407 45 79.6875ZM62.8125 82.5H72.1875C73.7407 82.5 75 81.2407 75 79.6875V70.3125C75 68.7593 73.7407 67.5 72.1875 67.5H62.8125C61.2593 67.5 60 68.7593 60 70.3125V79.6875C60 81.2407 61.2593 82.5 62.8125 82.5ZM105 111.562V120H0V111.562C0 110.009 1.2593 108.75 2.8125 108.75H7.38281V19.9301C7.38281 17.2073 9.90117 15 13.0078 15H33.75V5.625C33.75 2.51836 36.2684 0 39.375 0H65.625C68.7316 0 71.25 2.51836 71.25 5.625V15H91.9922C95.0988 15 97.6172 17.2073 97.6172 19.9301V108.75H102.188C103.741 108.75 105 110.009 105 111.562ZM18.6328 108.516H45V92.8125C45 91.2593 46.2593 90 47.8125 90H57.1875C58.7407 90 60 91.2593 60 92.8125V108.516H86.3672V26.25H71.25V31.875C71.25 34.9816 68.7316 37.5 65.625 37.5H39.375C36.2684 37.5 33.75 34.9816 33.75 31.875V26.25H18.6328V108.516ZM62.3438 15H56.25V8.90625C56.25 8.53329 56.1018 8.1756 55.8381 7.91188C55.5744 7.64816 55.2167 7.5 54.8438 7.5H50.1562C49.7833 7.5 49.4256 7.64816 49.1619 7.91188C48.8982 8.1756 48.75 8.53329 48.75 8.90625V15H42.6562C42.2833 15 41.9256 15.1482 41.6619 15.4119C41.3982 15.6756 41.25 16.0333 41.25 16.4062V21.0938C41.25 21.4667 41.3982 21.8244 41.6619 22.0881C41.9256 22.3518 42.2833 22.5 42.6562 22.5H48.75V28.5938C48.75 28.9667 48.8982 29.3244 49.1619 29.5881C49.4256 29.8518 49.7833 30 50.1562 30H54.8438C55.2167 30 55.5744 29.8518 55.8381 29.5881C56.1018 29.3244 56.25 28.9667 56.25 28.5938V22.5H62.3438C62.7167 22.5 63.0744 22.3518 63.3381 22.0881C63.6018 21.8244 63.75 21.4667 63.75 21.0938V16.4062C63.75 16.0333 63.6018 15.6756 63.3381 15.4119C63.0744 15.1482 62.7167 15 62.3438 15Z" fill="#2234FD"/>
</g>
<defs>
<clipPath id="clip0_12_6">
<rect width="105" height="120" fill="white"/>
</clipPath>
</defs>
</svg>
