<svg width="27" height="27" viewBox="0 0 27 27" fill="none" xmlns="http://www.w3.org/2000/svg">
<path d="M4.5 22.5C3.88125 22.5 3.35175 22.2799 2.9115 21.8396C2.47125 21.3994 2.25075 20.8695 2.25 20.25V6.75C2.25 6.13125 2.4705 5.60175 2.9115 5.1615C3.3525 4.72125 3.882 4.50075 4.5 4.5H22.5C23.1187 4.5 23.6486 4.7205 24.0896 5.1615C24.5306 5.6025 24.7507 6.132 24.75 6.75V20.25C24.75 20.8687 24.5299 21.3986 24.0896 21.8396C23.6494 22.2806 23.1195 22.5007 22.5 22.5H4.5ZM13.5 14.625L4.5 9V20.25H22.5V9L13.5 14.625ZM13.5 12.375L22.5 6.75H4.5L13.5 12.375ZM4.5 9V6.75V20.25V9Z" fill="#FEE9DF"/>
</svg>
