<svg width="14" height="20" viewBox="0 0 14 20" fill="none" xmlns="http://www.w3.org/2000/svg">
<path d="M7 9.54159C6.33696 9.54159 5.70107 9.30014 5.23223 8.87037C4.76339 8.4406 4.5 7.85771 4.5 7.24992C4.5 6.64213 4.76339 6.05924 5.23223 5.62947C5.70107 5.19969 6.33696 4.95825 7 4.95825C7.66304 4.95825 8.29893 5.19969 8.76777 5.62947C9.23661 6.05924 9.5 6.64213 9.5 7.24992C9.5 7.55086 9.43534 7.84886 9.3097 8.1269C9.18406 8.40494 8.99991 8.65757 8.76777 8.87037C8.53562 9.08317 8.26002 9.25198 7.95671 9.36714C7.65339 9.48231 7.3283 9.54159 7 9.54159ZM7 0.833252C5.14348 0.833252 3.36301 1.50929 2.05025 2.71265C0.737498 3.91601 0 5.54811 0 7.24992C0 12.0624 7 19.1666 7 19.1666C7 19.1666 14 12.0624 14 7.24992C14 5.54811 13.2625 3.91601 11.9497 2.71265C10.637 1.50929 8.85652 0.833252 7 0.833252Z" fill="black"/>
</svg>
